<mxfile host="app.diagrams.net" modified="2020-09-13T12:22:48.615Z" agent="5.0 (Windows)" etag="YTRA24vaB7gUfB8uUAeB" version="13.6.10" type="github">
  <diagram id="Uiol1SnUfE1j45obXhNL" name="Page-1">
    <mxGraphModel dx="3200" dy="1090" grid="1" gridSize="10" guides="1" tooltips="1" connect="1" arrows="1" fold="1" page="1" pageScale="1" pageWidth="1169" pageHeight="827" math="0" shadow="0">
      <root>
        <mxCell id="0" />
        <mxCell id="1" parent="0" />
        <mxCell id="VPgzE5QrAe7zwuN9dMEH-3" value="" style="rounded=0;whiteSpace=wrap;html=1;" parent="1" vertex="1">
          <mxGeometry x="380" y="140" width="570" height="500" as="geometry" />
        </mxCell>
        <mxCell id="wQGJhoNylOPmHoqxIN_d-5" value="" style="rounded=0;whiteSpace=wrap;html=1;" vertex="1" parent="1">
          <mxGeometry x="698.75" y="235" width="190" height="330" as="geometry" />
        </mxCell>
        <mxCell id="2aSgEpUVukIeS3NCcZiI-8" value="" style="rounded=1;whiteSpace=wrap;html=1;" parent="1" vertex="1">
          <mxGeometry x="711.25" y="270" width="165" height="190" as="geometry" />
        </mxCell>
        <mxCell id="bI4hTeVT0tQoFy_GIRa0-6" value="" style="rounded=0;whiteSpace=wrap;html=1;" parent="1" vertex="1">
          <mxGeometry x="-260" y="139" width="450" height="490" as="geometry" />
        </mxCell>
        <mxCell id="2aSgEpUVukIeS3NCcZiI-6" value="" style="rounded=1;whiteSpace=wrap;html=1;" parent="1" vertex="1">
          <mxGeometry x="-220" y="159" width="155" height="450" as="geometry" />
        </mxCell>
        <mxCell id="bI4hTeVT0tQoFy_GIRa0-11" value="&lt;div&gt;Webpage&lt;/div&gt;&lt;div&gt;(HTMl)&lt;br&gt;&lt;/div&gt;" style="rounded=1;whiteSpace=wrap;html=1;" parent="1" vertex="1">
          <mxGeometry x="733.75" y="305" width="120" height="60" as="geometry" />
        </mxCell>
        <mxCell id="bI4hTeVT0tQoFy_GIRa0-1" value="Front-End" style="text;html=1;strokeColor=none;fillColor=none;align=center;verticalAlign=middle;whiteSpace=wrap;rounded=0;" parent="1" vertex="1">
          <mxGeometry x="385" y="110" width="80" height="20" as="geometry" />
        </mxCell>
        <mxCell id="bI4hTeVT0tQoFy_GIRa0-7" value="" style="rounded=0;whiteSpace=wrap;html=1;" parent="1" vertex="1">
          <mxGeometry x="420" y="180" width="190" height="440" as="geometry" />
        </mxCell>
        <mxCell id="bI4hTeVT0tQoFy_GIRa0-4" value="Catering Management Module" style="rounded=1;whiteSpace=wrap;html=1;" parent="1" vertex="1">
          <mxGeometry x="455" y="210" width="120" height="60" as="geometry" />
        </mxCell>
        <mxCell id="bI4hTeVT0tQoFy_GIRa0-8" value="&lt;div&gt;Back-End&lt;/div&gt;" style="text;html=1;strokeColor=none;fillColor=none;align=center;verticalAlign=middle;whiteSpace=wrap;rounded=0;" parent="1" vertex="1">
          <mxGeometry x="-230" y="110" width="80" height="20" as="geometry" />
        </mxCell>
        <mxCell id="bI4hTeVT0tQoFy_GIRa0-9" value="Online Catering System" style="text;html=1;strokeColor=none;fillColor=none;align=center;verticalAlign=middle;whiteSpace=wrap;rounded=0;" parent="1" vertex="1">
          <mxGeometry x="420" y="160" width="180" height="20" as="geometry" />
        </mxCell>
        <mxCell id="bI4hTeVT0tQoFy_GIRa0-10" value="&lt;div&gt;Customer &lt;br&gt;&lt;/div&gt;&lt;div&gt;Database&lt;br&gt;&lt;/div&gt;" style="rounded=1;whiteSpace=wrap;html=1;" parent="1" vertex="1">
          <mxGeometry x="-202.5" y="209" width="120" height="60" as="geometry" />
        </mxCell>
        <mxCell id="bI4hTeVT0tQoFy_GIRa0-12" value="Food and Beverage Management " style="rounded=1;whiteSpace=wrap;html=1;" parent="1" vertex="1">
          <mxGeometry x="455" y="290" width="120" height="60" as="geometry" />
        </mxCell>
        <mxCell id="bI4hTeVT0tQoFy_GIRa0-13" value="Staff Database" style="rounded=1;whiteSpace=wrap;html=1;" parent="1" vertex="1">
          <mxGeometry x="-202.5" y="284" width="120" height="60" as="geometry" />
        </mxCell>
        <mxCell id="bI4hTeVT0tQoFy_GIRa0-14" value="Client" style="shape=umlActor;verticalLabelPosition=bottom;verticalAlign=top;html=1;outlineConnect=0;" parent="1" vertex="1">
          <mxGeometry x="1050" y="100" width="55" height="110" as="geometry" />
        </mxCell>
        <mxCell id="bI4hTeVT0tQoFy_GIRa0-15" value="Operations Staff" style="shape=umlActor;verticalLabelPosition=bottom;verticalAlign=top;html=1;outlineConnect=0;" parent="1" vertex="1">
          <mxGeometry x="1050" y="295" width="55" height="110" as="geometry" />
        </mxCell>
        <mxCell id="bI4hTeVT0tQoFy_GIRa0-16" value="Management staff" style="shape=umlActor;verticalLabelPosition=bottom;verticalAlign=top;html=1;outlineConnect=0;" parent="1" vertex="1">
          <mxGeometry x="1060" y="530" width="55" height="110" as="geometry" />
        </mxCell>
        <mxCell id="bI4hTeVT0tQoFy_GIRa0-18" value="Customer Membership and Profile" style="rounded=1;whiteSpace=wrap;html=1;" parent="1" vertex="1">
          <mxGeometry x="455" y="370" width="120" height="60" as="geometry" />
        </mxCell>
        <mxCell id="8wUuKGkAHpBmM9qBxKhN-5" value="" style="endArrow=classic;html=1;entryX=1;entryY=0.225;entryDx=0;entryDy=0;entryPerimeter=0;" parent="1" target="wQGJhoNylOPmHoqxIN_d-5" edge="1">
          <mxGeometry width="50" height="50" relative="1" as="geometry">
            <mxPoint x="1040" y="170" as="sourcePoint" />
            <mxPoint x="960" y="90" as="targetPoint" />
          </mxGeometry>
        </mxCell>
        <mxCell id="8wUuKGkAHpBmM9qBxKhN-6" value="" style="endArrow=classic;html=1;entryX=1.011;entryY=0.427;entryDx=0;entryDy=0;entryPerimeter=0;" parent="1" target="wQGJhoNylOPmHoqxIN_d-5" edge="1">
          <mxGeometry width="50" height="50" relative="1" as="geometry">
            <mxPoint x="1040" y="370" as="sourcePoint" />
            <mxPoint x="1030" y="570" as="targetPoint" />
          </mxGeometry>
        </mxCell>
        <mxCell id="8wUuKGkAHpBmM9qBxKhN-7" value="" style="endArrow=classic;html=1;" parent="1" target="wQGJhoNylOPmHoqxIN_d-5" edge="1">
          <mxGeometry width="50" height="50" relative="1" as="geometry">
            <mxPoint x="1040" y="580" as="sourcePoint" />
            <mxPoint x="960" y="610" as="targetPoint" />
          </mxGeometry>
        </mxCell>
        <mxCell id="8wUuKGkAHpBmM9qBxKhN-11" value="&lt;div&gt;Interface&lt;/div&gt;&lt;div&gt;(CSS)&lt;br&gt;&lt;/div&gt;" style="rounded=1;whiteSpace=wrap;html=1;" parent="1" vertex="1">
          <mxGeometry x="733.75" y="380" width="120" height="60" as="geometry" />
        </mxCell>
        <mxCell id="8wUuKGkAHpBmM9qBxKhN-12" value="JQuery Script" style="rounded=1;whiteSpace=wrap;html=1;" parent="1" vertex="1">
          <mxGeometry x="731.25" y="484" width="120" height="60" as="geometry" />
        </mxCell>
        <mxCell id="2aSgEpUVukIeS3NCcZiI-1" value="Payment Module" style="rounded=1;whiteSpace=wrap;html=1;" parent="1" vertex="1">
          <mxGeometry x="455" y="450" width="120" height="60" as="geometry" />
        </mxCell>
        <mxCell id="2aSgEpUVukIeS3NCcZiI-2" value="Catering Orders Database" style="rounded=1;whiteSpace=wrap;html=1;" parent="1" vertex="1">
          <mxGeometry x="-202.5" y="364" width="120" height="60" as="geometry" />
        </mxCell>
        <mxCell id="2aSgEpUVukIeS3NCcZiI-3" value="Transactions Database" style="rounded=1;whiteSpace=wrap;html=1;" parent="1" vertex="1">
          <mxGeometry x="-202.5" y="444" width="120" height="60" as="geometry" />
        </mxCell>
        <mxCell id="2aSgEpUVukIeS3NCcZiI-7" value="MySQL Databases" style="text;html=1;strokeColor=none;fillColor=none;align=center;verticalAlign=middle;whiteSpace=wrap;rounded=0;" parent="1" vertex="1">
          <mxGeometry x="-202.5" y="169" width="117" height="20" as="geometry" />
        </mxCell>
        <mxCell id="2aSgEpUVukIeS3NCcZiI-10" value="BootStrap Framework" style="text;html=1;strokeColor=none;fillColor=none;align=center;verticalAlign=middle;whiteSpace=wrap;rounded=0;" parent="1" vertex="1">
          <mxGeometry x="731.25" y="272" width="127.5" height="20" as="geometry" />
        </mxCell>
        <mxCell id="2aSgEpUVukIeS3NCcZiI-11" value="Business Analytics Module" style="rounded=1;whiteSpace=wrap;html=1;" parent="1" vertex="1">
          <mxGeometry x="455" y="530" width="120" height="60" as="geometry" />
        </mxCell>
        <mxCell id="wQGJhoNylOPmHoqxIN_d-6" value="Inventory Database" style="rounded=1;whiteSpace=wrap;html=1;" vertex="1" parent="1">
          <mxGeometry x="-205.5" y="519" width="120" height="60" as="geometry" />
        </mxCell>
        <mxCell id="wQGJhoNylOPmHoqxIN_d-9" value="&lt;div&gt;Back-End Request Processor&lt;/div&gt;&lt;div&gt;&lt;br&gt;&lt;/div&gt;&lt;div&gt;(Django Framework)&lt;br&gt;&lt;/div&gt;" style="rounded=1;whiteSpace=wrap;html=1;" vertex="1" parent="1">
          <mxGeometry x="20" y="311.5" width="155" height="107" as="geometry" />
        </mxCell>
        <mxCell id="wQGJhoNylOPmHoqxIN_d-10" value="" style="endArrow=classic;html=1;entryX=1;entryY=0.5;entryDx=0;entryDy=0;exitX=0;exitY=0.5;exitDx=0;exitDy=0;" edge="1" parent="1" source="wQGJhoNylOPmHoqxIN_d-5" target="bI4hTeVT0tQoFy_GIRa0-4">
          <mxGeometry width="50" height="50" relative="1" as="geometry">
            <mxPoint x="700" y="770" as="sourcePoint" />
            <mxPoint x="750" y="720" as="targetPoint" />
            <Array as="points">
              <mxPoint x="670" y="400" />
              <mxPoint x="670" y="240" />
            </Array>
          </mxGeometry>
        </mxCell>
        <mxCell id="wQGJhoNylOPmHoqxIN_d-11" value="" style="endArrow=classic;html=1;entryX=1;entryY=0.5;entryDx=0;entryDy=0;exitX=0;exitY=0.5;exitDx=0;exitDy=0;" edge="1" parent="1" source="wQGJhoNylOPmHoqxIN_d-9" target="bI4hTeVT0tQoFy_GIRa0-10">
          <mxGeometry width="50" height="50" relative="1" as="geometry">
            <mxPoint x="300" y="530" as="sourcePoint" />
            <mxPoint x="350" y="480" as="targetPoint" />
            <Array as="points">
              <mxPoint x="-10" y="365" />
              <mxPoint x="-10" y="239" />
            </Array>
          </mxGeometry>
        </mxCell>
        <mxCell id="wQGJhoNylOPmHoqxIN_d-12" value="" style="endArrow=classic;html=1;entryX=1;entryY=0.5;entryDx=0;entryDy=0;" edge="1" parent="1" target="bI4hTeVT0tQoFy_GIRa0-13">
          <mxGeometry width="50" height="50" relative="1" as="geometry">
            <mxPoint x="-10" y="314" as="sourcePoint" />
            <mxPoint x="300" y="260" as="targetPoint" />
          </mxGeometry>
        </mxCell>
        <mxCell id="wQGJhoNylOPmHoqxIN_d-13" value="" style="endArrow=classic;html=1;exitX=0;exitY=0.5;exitDx=0;exitDy=0;entryX=1;entryY=0.5;entryDx=0;entryDy=0;" edge="1" parent="1" source="wQGJhoNylOPmHoqxIN_d-9" target="wQGJhoNylOPmHoqxIN_d-6">
          <mxGeometry width="50" height="50" relative="1" as="geometry">
            <mxPoint x="260" y="410" as="sourcePoint" />
            <mxPoint x="310" y="360" as="targetPoint" />
            <Array as="points">
              <mxPoint x="-10" y="365" />
              <mxPoint x="-10" y="549" />
            </Array>
          </mxGeometry>
        </mxCell>
        <mxCell id="wQGJhoNylOPmHoqxIN_d-14" value="" style="endArrow=classic;html=1;entryX=1;entryY=0.5;entryDx=0;entryDy=0;" edge="1" parent="1" target="2aSgEpUVukIeS3NCcZiI-3">
          <mxGeometry width="50" height="50" relative="1" as="geometry">
            <mxPoint x="-10" y="474" as="sourcePoint" />
            <mxPoint x="-360" y="390" as="targetPoint" />
          </mxGeometry>
        </mxCell>
        <mxCell id="wQGJhoNylOPmHoqxIN_d-15" value="" style="endArrow=classic;html=1;entryX=1;entryY=0.5;entryDx=0;entryDy=0;" edge="1" parent="1" target="2aSgEpUVukIeS3NCcZiI-2">
          <mxGeometry width="50" height="50" relative="1" as="geometry">
            <mxPoint x="-10" y="394" as="sourcePoint" />
            <mxPoint x="-370" y="370" as="targetPoint" />
          </mxGeometry>
        </mxCell>
        <mxCell id="wQGJhoNylOPmHoqxIN_d-16" value="" style="endArrow=classic;html=1;entryX=1;entryY=0.5;entryDx=0;entryDy=0;exitX=0;exitY=0.75;exitDx=0;exitDy=0;" edge="1" parent="1" source="2aSgEpUVukIeS3NCcZiI-11" target="wQGJhoNylOPmHoqxIN_d-9">
          <mxGeometry width="50" height="50" relative="1" as="geometry">
            <mxPoint x="270" y="400" as="sourcePoint" />
            <mxPoint x="320" y="350" as="targetPoint" />
            <Array as="points">
              <mxPoint x="280" y="575" />
              <mxPoint x="280" y="570" />
              <mxPoint x="280" y="365" />
            </Array>
          </mxGeometry>
        </mxCell>
        <mxCell id="wQGJhoNylOPmHoqxIN_d-18" value="" style="endArrow=none;html=1;entryX=0;entryY=0.5;entryDx=0;entryDy=0;" edge="1" parent="1" target="bI4hTeVT0tQoFy_GIRa0-4">
          <mxGeometry width="50" height="50" relative="1" as="geometry">
            <mxPoint x="280" y="370" as="sourcePoint" />
            <mxPoint x="370" y="260" as="targetPoint" />
            <Array as="points">
              <mxPoint x="280" y="240" />
            </Array>
          </mxGeometry>
        </mxCell>
        <mxCell id="wQGJhoNylOPmHoqxIN_d-19" value="" style="endArrow=none;html=1;entryX=0;entryY=0.5;entryDx=0;entryDy=0;" edge="1" parent="1" target="bI4hTeVT0tQoFy_GIRa0-12">
          <mxGeometry width="50" height="50" relative="1" as="geometry">
            <mxPoint x="280" y="320" as="sourcePoint" />
            <mxPoint x="370" y="320" as="targetPoint" />
          </mxGeometry>
        </mxCell>
        <mxCell id="wQGJhoNylOPmHoqxIN_d-20" value="" style="endArrow=none;html=1;entryX=0;entryY=0.5;entryDx=0;entryDy=0;" edge="1" parent="1" target="bI4hTeVT0tQoFy_GIRa0-18">
          <mxGeometry width="50" height="50" relative="1" as="geometry">
            <mxPoint x="280" y="400" as="sourcePoint" />
            <mxPoint x="380" y="380" as="targetPoint" />
          </mxGeometry>
        </mxCell>
        <mxCell id="wQGJhoNylOPmHoqxIN_d-21" value="" style="endArrow=none;html=1;" edge="1" parent="1" target="2aSgEpUVukIeS3NCcZiI-1">
          <mxGeometry width="50" height="50" relative="1" as="geometry">
            <mxPoint x="280" y="480" as="sourcePoint" />
            <mxPoint x="380" y="450" as="targetPoint" />
          </mxGeometry>
        </mxCell>
        <mxCell id="wQGJhoNylOPmHoqxIN_d-22" value="Home Webpage" style="text;html=1;strokeColor=none;fillColor=none;align=center;verticalAlign=middle;whiteSpace=wrap;rounded=0;" vertex="1" parent="1">
          <mxGeometry x="700" y="210" width="100" height="20" as="geometry" />
        </mxCell>
        <mxCell id="wQGJhoNylOPmHoqxIN_d-23" value="" style="endArrow=classic;html=1;entryX=1;entryY=0.5;entryDx=0;entryDy=0;exitX=0;exitY=0.5;exitDx=0;exitDy=0;" edge="1" parent="1" source="wQGJhoNylOPmHoqxIN_d-5" target="2aSgEpUVukIeS3NCcZiI-11">
          <mxGeometry width="50" height="50" relative="1" as="geometry">
            <mxPoint x="640" y="760" as="sourcePoint" />
            <mxPoint x="690" y="710" as="targetPoint" />
            <Array as="points">
              <mxPoint x="670" y="400" />
              <mxPoint x="670" y="560" />
            </Array>
          </mxGeometry>
        </mxCell>
        <mxCell id="wQGJhoNylOPmHoqxIN_d-24" value="" style="endArrow=classic;html=1;entryX=1;entryY=0.5;entryDx=0;entryDy=0;" edge="1" parent="1" target="2aSgEpUVukIeS3NCcZiI-1">
          <mxGeometry width="50" height="50" relative="1" as="geometry">
            <mxPoint x="670" y="480" as="sourcePoint" />
            <mxPoint x="670" y="640" as="targetPoint" />
          </mxGeometry>
        </mxCell>
        <mxCell id="wQGJhoNylOPmHoqxIN_d-25" value="" style="endArrow=classic;html=1;entryX=1;entryY=0.5;entryDx=0;entryDy=0;" edge="1" parent="1" target="bI4hTeVT0tQoFy_GIRa0-18">
          <mxGeometry width="50" height="50" relative="1" as="geometry">
            <mxPoint x="680" y="400" as="sourcePoint" />
            <mxPoint x="710" y="680" as="targetPoint" />
          </mxGeometry>
        </mxCell>
        <mxCell id="wQGJhoNylOPmHoqxIN_d-26" value="" style="endArrow=classic;html=1;entryX=1;entryY=0.5;entryDx=0;entryDy=0;" edge="1" parent="1" target="bI4hTeVT0tQoFy_GIRa0-12">
          <mxGeometry width="50" height="50" relative="1" as="geometry">
            <mxPoint x="670" y="320" as="sourcePoint" />
            <mxPoint x="770" y="710" as="targetPoint" />
          </mxGeometry>
        </mxCell>
      </root>
    </mxGraphModel>
  </diagram>
</mxfile>
